HIERARCHY
ROOT SpineBase
{
  OFFSET 0.000000 0.000000 0.000000
  CHANNELS 6 Xposition Yposition Zposition Zrotation Xrotation Yrotation
  JOINT SpineMid
  {
    OFFSET -0.000000 31.659979 0.000000
    CHANNELS 3 Zrotation Xrotation Yrotation
    JOINT SpineShoulder
    {
      OFFSET -0.245345 23.410424 -0.733896
      CHANNELS 3 Zrotation Xrotation Yrotation
      JOINT Neck
      {
        OFFSET -0.165578 7.716885 -0.579883
        CHANNELS 3 Zrotation Xrotation Yrotation
        JOINT Head
        {
          OFFSET -0.787690 14.527770 0.616535
          CHANNELS 3 Zrotation Xrotation Yrotation
          End Site
          {
            OFFSET 0 0 0
          }
        }
      }
      JOINT ShoulderLeft
      {
        OFFSET -16.565013 -5.078350 8.269071
        CHANNELS 3 Zrotation Xrotation Yrotation
        JOINT ElbowLeft
        {
          OFFSET -5.369654 -25.687623 1.243096
          CHANNELS 3 Zrotation Xrotation Yrotation
          JOINT WristLeft
          {
            OFFSET -4.808662 -21.862237 -3.684416
            CHANNELS 3 Zrotation Xrotation Yrotation
            JOINT HandLeft
            {
              OFFSET -3.707747 -5.940173 -0.816551
              CHANNELS 3 Zrotation Xrotation Yrotation
              JOINT HandTipLeft
              {
                OFFSET -1.598536 -7.387890 0.526370
                CHANNELS 3 Zrotation Xrotation Yrotation
                End Site
                {
                  OFFSET 0 0 0
                }
              }
              JOINT ThumbLeft
              {
                OFFSET 2.238024 -2.430936 -1.257278
                CHANNELS 3 Zrotation Xrotation Yrotation
                End Site
                {
                  OFFSET 0 0 0
                }
              }
            }
          }
        }
      }
      JOINT ShoulderRight
      {
        OFFSET 13.794222 -3.320160 -8.012186
        CHANNELS 3 Zrotation Xrotation Yrotation
        JOINT ElbowRight
        {
          OFFSET 5.445179 -25.707557 -2.409627
          CHANNELS 3 Zrotation Xrotation Yrotation
          JOINT WristRight
          {
            OFFSET 2.149788 -22.472666 -6.344468
            CHANNELS 3 Zrotation Xrotation Yrotation
            JOINT HandRight
            {
              OFFSET -1.311732 -7.163508 0.246854
              CHANNELS 3 Zrotation Xrotation Yrotation
              JOINT HandTipRight
              {
                OFFSET 1.203342 -7.220342 -0.073123
                CHANNELS 3 Zrotation Xrotation Yrotation
                End Site
                {
                  OFFSET 0 0 0
                }
              }
              JOINT ThumbRight
              {
                OFFSET -3.503542 -0.838698 -1.745591
                CHANNELS 3 Zrotation Xrotation Yrotation
                End Site
                {
                  OFFSET 0 0 0
                }
              }
            }
          }
        }
      }
    }
  }
  JOINT HipLeft
  {
    OFFSET -6.007001 -0.027859 -0.993548
    CHANNELS 3 Zrotation Xrotation Yrotation
    JOINT KneeLeft
    {
      OFFSET 2.168582 -38.063906 5.521800
      CHANNELS 3 Zrotation Xrotation Yrotation
      JOINT AnkleLeft
      {
        OFFSET 4.856152 -37.561806 5.649857
        CHANNELS 3 Zrotation Xrotation Yrotation
        JOINT FootLeft
        {
          OFFSET -4.318634 -4.326242 -11.145402
          CHANNELS 3 Zrotation Xrotation Yrotation
          End Site
          {
            OFFSET 0 0 0
          }
        }
      }
    }
  }
  JOINT HipRight
  {
    OFFSET 4.325984 1.104973 -6.772404
    CHANNELS 3 Zrotation Xrotation Yrotation
    JOINT KneeRight
    {
      OFFSET 6.455725 -37.553129 0.878969
      CHANNELS 3 Zrotation Xrotation Yrotation
      JOINT AnkleRight
      {
        OFFSET 4.980929 -38.228748 6.678635
        CHANNELS 3 Zrotation Xrotation Yrotation
        JOINT FootRight
        {
          OFFSET -2.844735 -7.997242 -4.486888
          CHANNELS 3 Zrotation Xrotation Yrotation
          End Site
          {
            OFFSET 0 0 0
          }
        }
      }
    }
  }
}
MOTION
Frames: 6
Frame Time: 0.033333
81.744128 83.569956 386.620994 -0.506046 -0.617030 38.264885 -0.514560 0.071135 -38.305165 -0.188318 -0.051621 -0.065737 11.528639 4.528110 -0.643374 0.000000 0.000000 0.000000 4.904132 -0.169850 0.487967 6.516619 -1.391157 -1.582511 18.319269 -1.426778 -0.347552 -13.166135 3.599132 2.675096 0.000000 0.000000 0.000000 0.000000 0.000000 0.000000 2.876702 4.498727 0.602719 -6.465876 -1.903598 0.613832 13.803222 3.189639 -2.167554 -21.363490 6.808245 2.586964 0.000000 0.000000 0.000000 0.000000 0.000000 0.000000 2.573447 -0.982087 -37.936654 -2.123761 -0.193720 -0.323010 7.958346 -20.672394 3.864604 0.000000 0.000000 0.000000 1.278025 -2.007510 -38.460462 -0.734214 0.763075 0.295105 -5.112746 -2.250020 3.190013 0.000000 0.000000 0.000000
81.874833 83.567853 386.624883 -0.530046 -0.685152 38.643639 -0.482166 0.064269 -38.684692 -0.178357 -0.052970 -0.065304 11.917949 4.691652 -0.695450 0.000000 0.000000 0.000000 5.001315 0.002529 0.460430 5.761378 -1.259465 -1.510221 17.817020 -0.993584 -0.812601 -13.442692 5.316504 2.081695 0.000000 0.000000 0.000000 0.000000 0.000000 0.000000 2.917672 4.370823 0.556104 -6.026172 -2.207718 0.492456 14.222022 2.826262 -1.836668 -22.029546 8.751503 2.900451 0.000000 0.000000 0.000000 0.000000 0.000000 0.000000 2.484847 -0.778641 -38.350315 -1.898203 -0.248870 -0.293877 8.085482 -21.090196 4.303658 0.000000 0.000000 0.000000 1.207554 -1.906634 -38.848943 -0.628299 0.714333 0.286744 -5.627634 -1.394017 3.242658 0.000000 0.000000 0.000000
82.013828 83.565970 386.629597 -0.537484 -0.759506 39.005304 -0.450612 0.063994 -39.046618 -0.168400 -0.049639 -0.064237 12.277251 4.885306 -0.748885 0.000000 0.000000 0.000000 5.051142 0.257791 0.409278 5.130761 -1.401069 -1.366271 16.669822 -0.235260 -1.409565 -13.303102 5.901017 1.868736 0.000000 0.000000 0.000000 0.000000 0.000000 0.000000 2.889386 4.212935 0.511857 -5.525913 -2.400316 0.386468 13.929808 2.990192 -1.673406 -21.975605 9.819097 3.121317 0.000000 0.000000 0.000000 0.000000 0.000000 0.000000 2.374827 -0.548897 -38.749652 -1.654754 -0.301349 -0.261702 5.954593 -17.110800 4.905317 0.000000 0.000000 0.000000 1.135095 -1.764835 -39.216605 -0.483057 0.633635 0.277844 -1.034244 -3.822929 1.644867 0.000000 0.000000 0.000000
82.163986 83.563587 386.631414 -0.508089 -0.809901 39.336877 -0.415474 0.071539 -39.376624 -0.163978 -0.039131 -0.061503 12.511248 4.914072 -0.783342 0.000000 0.000000 0.000000 4.979460 0.442740 0.362188 4.770849 -1.375928 -1.303174 14.619297 0.054271 -1.378185 -12.159273 5.049128 1.898555 0.000000 0.000000 0.000000 0.000000 0.000000 0.000000 2.771071 3.999570 0.471993 -5.001300 -2.428448 0.307698 13.602967 3.318434 -1.590396 -21.714284 10.494329 3.278418 0.000000 0.000000 0.000000 0.000000 0.000000 0.000000 2.235462 -0.308240 -39.116411 -1.417660 -0.363270 -0.230913 0.691899 -6.852351 6.076427 0.000000 0.000000 0.000000 1.004928 -1.622623 -39.556345 -0.332761 0.579212 0.272277 -4.002211 1.512118 1.460458 0.000000 0.000000 0.000000
82.305953 83.562878 386.637983 -0.442365 -0.829320 39.608633 -0.376245 0.087360 -39.644908 -0.166051 -0.023157 -0.057182 12.511293 4.664653 -0.780727 0.000000 0.000000 0.000000 4.763624 0.450371 0.343761 4.643528 -1.122245 -1.327630 12.841688 -0.541787 -0.605854 -10.138207 7.311720 0.730409 0.000000 0.000000 0.000000 0.000000 0.000000 0.000000 2.574429 3.752637 0.440293 -4.538289 -2.281862 0.269408 12.785435 3.822903 -1.620880 -20.576289 8.304414 2.751579 0.000000 0.000000 0.000000 0.000000 0.000000 0.000000 2.072938 -0.076629 -39.418220 -1.204939 -0.429192 -0.203779 -0.781944 -4.034245 6.559714 0.000000 0.000000 0.000000 0.843155 -1.479098 -39.833483 -0.224076 0.496074 0.257767 -1.256838 3.304242 -0.670004 0.000000 0.000000 0.000000
82.423613 83.564837 386.649008 -0.376114 -0.838582 39.799359 -0.354873 0.105755 -39.832544 -0.171626 -0.010864 -0.053887 12.467337 4.348466 -0.768102 0.000000 0.000000 0.000000 4.596926 0.476676 0.323546 4.483639 -0.901760 -1.341653 11.602253 -1.396480 0.267314 -8.775225 7.176050 0.303457 0.000000 0.000000 0.000000 0.000000 0.000000 0.000000 2.327113 3.523640 0.421535 -4.084015 -2.083978 0.245966 11.849766 4.419452 -1.704722 -19.344575 7.578360 2.694514 0.000000 0.000000 0.000000 0.000000 0.000000 0.000000 1.950347 0.107824 -39.629153 -1.054761 -0.489487 -0.185390 -0.516842 -4.836892 6.847895 0.000000 0.000000 0.000000 0.712870 -1.365269 -40.027114 -0.172095 0.406597 0.239607 -0.747931 3.974939 -1.122236 0.000000 0.000000 0.000000
